<svg xmlns="http://www.w3.org/2000/svg" width="106" height="40" fill="none">
  <path fill="#CC3488" d="M22.13 31.08H6.9v1.48h15.23v-1.48Zm-1.59 2.69H8.5v1.48h12.04v-1.48Zm-1.45 2.69H9.94v1.48h9.15v-1.48ZM14.52 39c.72 0 1.34-.44 1.62-1.06H12.9c.28.62.9 1.06 1.63 1.06ZM25.86 7.14l-1.62 1.61a11.29 11.29 0 0 1 .16 11.47l1.76 1.76a13.66 13.66 0 0 0-.3-14.84Zm-5.67 17.31a11.37 11.37 0 0 1-9.56.86v2.74a13.83 13.83 0 0 0 14.09-4.14l-1.74-1.73c-.8.9-1.74 1.67-2.79 2.27Z"/>
  <path fill="#CC3488" d="M14.48 23.6a8.96 8.96 0 0 0 9-8.98 8.99 8.99 0 0 0-18 0v.4l.04.39v9.95c.83.7 1.74 1.29 2.72 1.77V21.4l1.79 1.02a8.9 8.9 0 0 0 4.46 1.18ZM8.3 14.7a6.14 6.14 0 0 1 6.18-6.17A6.17 6.17 0 1 1 8.3 14.7Z"/>
  <path fill="#CC3488" d="M3.1 14.62a11.37 11.37 0 0 1 19.68-7.78l1.57-1.57A13.8 13.8 0 0 0 3.13 22.79v-7.24l-.02-.44-.02-.49Zm29.61 9.57v-11.1h2.38v9.08h3.8v2.02h-6.17Zm9.62-7.44v3.9c0 .67.12 1.14.38 1.42s.67.42 1.25.42.99-.14 1.25-.42c.26-.29.38-.76.38-1.41v-3.91h2.17v3.91c0 1.3-.3 2.27-.92 2.9-.61.61-1.56.92-2.85.92s-2.28-.3-2.9-.92c-.6-.62-.92-1.59-.92-2.9v-3.91h2.16Zm9.65 7.44h-2.17v-7.44h2.17v1.16c.36-.49.74-.84 1.14-1.07.4-.23.86-.34 1.37-.34.62 0 1.12.12 1.5.38.4.25.67.63.83 1.14.35-.5.74-.89 1.18-1.14.44-.26.92-.38 1.44-.38.52 0 .97.1 1.34.29a2.06 2.06 0 0 1 1.08 1.59c.05.27.07.68.07 1.23v4.58h-2.16V20.5c0-.9-.1-1.5-.28-1.8-.19-.3-.51-.45-.97-.45-.56 0-.96.2-1.21.62a4.1 4.1 0 0 0-.38 2.03v3.28h-2.17V20.5c0-.88-.08-1.47-.25-1.78-.18-.3-.47-.46-.9-.46-.57 0-.98.2-1.24.63a3.97 3.97 0 0 0-.39 2.01v3.28Zm19.87-3.69c0 1.14-.4 2.09-1.18 2.84a4.1 4.1 0 0 1-2.97 1.14c-1.2 0-2.21-.38-3-1.14a3.8 3.8 0 0 1-1.18-2.85c0-1.14.4-2.09 1.19-2.85a4.13 4.13 0 0 1 2.99-1.14c1.2 0 2.2.37 2.98 1.13a3.8 3.8 0 0 1 1.17 2.86Zm-2.2-.02c0-.6-.18-1.1-.54-1.45a1.91 1.91 0 0 0-1.43-.55c-.6 0-1.07.18-1.42.54a2 2 0 0 0-.52 1.46 2 2 0 0 0 .52 1.45c.35.37.82.55 1.42.55s1.07-.18 1.43-.55c.36-.36.53-.85.53-1.45Zm3.83 7.09V16.75h2.08v1.22c.28-.5.63-.86 1.04-1.1.42-.25.9-.37 1.44-.37a3.1 3.1 0 0 1 2.5 1.05c.59.7.89 1.67.89 2.93 0 1.25-.3 2.18-.9 2.9-.61.74-1.4 1.1-2.39 1.1a3 3 0 0 1-1.5-.33 2.83 2.83 0 0 1-1.07-1.03 7.83 7.83 0 0 1 .08 1.36v3.09h-2.17Zm1.98-7.11c0 .67.16 1.2.5 1.57.33.37.8.56 1.39.56.59 0 1.05-.2 1.38-.56.33-.38.5-.9.5-1.57 0-.68-.17-1.2-.5-1.6-.34-.38-.8-.57-1.4-.57-.6 0-1.03.2-1.36.58-.34.39-.51.92-.51 1.58Zm15.09 3.73h-2.1l.03-1.07c-.3.47-.65.81-1.06 1.03-.41.22-.91.33-1.5.33-1 0-1.8-.36-2.4-1.1-.6-.73-.9-1.7-.9-2.9s.3-2.23.89-2.93c.6-.7 1.42-1.05 2.48-1.05.55 0 1.04.12 1.46.37a3 3 0 0 1 1.05 1.1v-1.22h2.05v7.44Zm-1.98-3.73c0-.67-.16-1.2-.5-1.59-.34-.39-.8-.58-1.37-.58-.57 0-1.05.2-1.38.58-.34.38-.5.91-.5 1.59 0 .67.16 1.2.49 1.57.33.37.8.56 1.38.56.59 0 1.06-.19 1.39-.56.33-.38.5-.9.5-1.57Zm4.28 3.73v-5.75h-1.04v-1.7h1.04v-2.47h2.17v2.48h1.04v1.69h-1.04v5.75h-2.17Zm4.55 0V12.43h2.12v4.18a10.6 10.6 0 0 1-.09 1.37c.45-.53.9-.9 1.34-1.13.45-.24.95-.35 1.5-.35.56 0 1.07.1 1.47.3a2.1 2.1 0 0 1 1.16 1.58c.05.26.08.67.08 1.23v4.58h-2.17V20.5c0-.92-.1-1.52-.32-1.81-.21-.3-.58-.44-1.1-.44a1.71 1.71 0 0 0-1.74 1.32c-.05.22-.08.57-.08 1.03v3.58H97.4Z"/>
</svg>
