<svg xmlns="http://www.w3.org/2000/svg" width="32" height="32" fill="none" viewBox="0 0 32 32">
    <g clip-path="url(#a)">
        <path fill="#ff2820" d="M7.705 2.749-.15 10.604l3.927 2.43 3.928-2.43 2.217-3.928z" />
        <path fill="#0084ff" d="M7.705 10.604H-.15v10.21l3.927 2.157 3.928-2.157z" />
        <path fill="#06d" d="M-.15 20.815v5.236a2.626 2.626 0 0 0 2.618 2.618h5.237l2.217-4.17-2.217-3.684z" />
        <path fill="#00ad3c"
            d="m29.646 5.538-4.858 3.848v.04l-1.584 6.048 1.584 6.121 4.837 3.893c.649.544 1.643.087 1.643-.763V6.3a.985.985 0 0 0-1.622-.762" />
        <path fill="#ffba00"
            d="M24.788 9.386V5.337c0-1.423-1.153-2.588-2.562-2.588H7.705v7.855h9.622v5.105l5.169-.576z" />
        <path fill="#00ad3c"
            d="M17.327 20.815H7.704v7.854h14.521c1.41 0 2.562-1.163 2.562-2.584V21.6l-2.564-5.269-4.898-.622z" />
        <path fill="#00831e" d="m17.327 15.71 7.461 5.89V9.386z" />
    </g>
    <defs>
        <clipPath id="a">
            <path fill="#fff" d="M0 0h31.418v31.418H0z" />
        </clipPath>
    </defs>
</svg>