<svg xmlns="http://www.w3.org/2000/svg" width="29" height="22" fill="none" viewBox="0 0 29 22">
    <path fill="#0085f7" d="M1.966 21.636h4.589V10.493L3.55 5.247 0 5.577V19.67c0 1.086.88 1.966 1.966 1.966" />
    <path fill="#00a94b" d="M22.286 21.636h4.589c1.086 0 1.966-.88 1.966-1.966V5.577l-3.545-.33-3.01 5.246z" />
    <path fill="#ffbc00" d="m22.286 1.972-2.695 5.143 2.695 3.378 6.555-4.916V2.955c0-2.43-2.774-3.818-4.72-2.36z" />
    <path fill="#ff4131" fill-rule="evenodd"
        d="M6.555 10.493 3.987 5.068l2.568-3.096 7.866 5.9 7.865-5.9v8.521l-7.865 5.9z" clip-rule="evenodd" />
    <path fill="#e51c19" d="M0 2.955v2.622l6.555 4.916V1.972L4.719.595C2.774-.863 0 .525 0 2.955" />
</svg>