<svg xmlns="http://www.w3.org/2000/svg" width="34" height="34" fill="none" viewBox="0 0 34 34">
    <path fill="#ff185b"
        d="M7.054 21.163a3.527 3.527 0 1 1-3.527-3.527h3.527zM8.818 21.163a3.527 3.527 0 0 1 7.054 0v8.818a3.527 3.527 0 0 1-7.054 0z" />
    <path fill="#00c5f1"
        d="M12.345 7.054a3.527 3.527 0 1 1 3.527-3.527v3.527zM12.345 8.817a3.527 3.527 0 0 1 0 7.055H3.527a3.527 3.527 0 0 1 0-7.055z" />
    <path fill="#00b67b"
        d="M26.454 12.345a3.527 3.527 0 1 1 3.527 3.527h-3.527zM24.69 12.345a3.527 3.527 0 0 1-7.054 0V3.527a3.528 3.528 0 0 1 7.054 0z" />
    <path fill="#ffb20f"
        d="M21.163 26.454a3.527 3.527 0 1 1-3.527 3.527v-3.527zM21.163 24.69a3.527 3.527 0 0 1 0-7.055h8.818a3.527 3.527 0 0 1 0 7.055z" />
</svg>