<svg xmlns="http://www.w3.org/2000/svg" width="37" height="37" fill="none" viewBox="0 0 37 37">
    <path fill="#4087fc"
        d="M2.28 13.223c0-3.83 0-5.746.746-7.21a6.84 6.84 0 0 1 2.989-2.988c1.463-.746 3.378-.746 7.209-.746h10.032c3.83 0 5.746 0 7.209.746a6.84 6.84 0 0 1 2.989 2.989c.745 1.463.745 3.378.745 7.21v10.03c0 3.831 0 5.747-.745 7.21a6.84 6.84 0 0 1-2.99 2.989c-1.462.746-3.378.746-7.208.746H13.224c-3.83 0-5.746 0-7.21-.746a6.84 6.84 0 0 1-2.988-2.99c-.746-1.462-.746-3.378-.746-7.208z" />
    <path fill="#fff"
        d="M9.424 11.4c-.798 0-1.444.729-1.444 1.628v7.898c0 2.294 1.648 4.153 3.682 4.153l8.553-.081c.798 0 1.444-.73 1.444-1.629v-7.98c0-2.293-1.956-3.99-3.99-3.99zM23.612 14.509c-.516.51-.812 1.246-.812 2.02v3.305c0 .774.296 1.51.811 2.02l3.211 2.829c.654.646 1.677.123 1.677-.857V12.694c0-.98-1.023-1.504-1.677-.858z" />
</svg>