<svg xmlns="http://www.w3.org/2000/svg" fill="none" viewBox="0 0 32 32">
  <path fill="currentColor"
    d="M10.94 13.12a1.15 1.15 0 0 1-.38-.88c0-.35.13-.65.38-.89.26-.23.59-.35.99-.35s.71.12.97.35c.25.24.38.53.38.9 0 .35-.13.63-.38.87a1.4 1.4 0 0 1-.97.35c-.4 0-.73-.12-.99-.35Zm2.12 1.35v7.25h-2.28v-7.25h2.28Zm7.62.72c.5.54.75 1.28.75 2.23v4.17h-2.17V17.7c0-.47-.13-.84-.37-1.1a1.3 1.3 0 0 0-1-.4c-.42 0-.75.13-1 .4-.24.26-.37.63-.37 1.1v3.88h-2.18v-7.14h2.18v.95c.22-.32.52-.57.9-.75.37-.18.8-.27 1.26-.27.84 0 1.5.27 2 .8Z" />
</svg>