<svg xmlns="http://www.w3.org/2000/svg" fill="none" viewBox="0 0 24 24">
  <path stroke="currentColor" stroke-linecap="round" stroke-linejoin="round" stroke-width="2"
    d="M20.5 7.28 12 12m0 0L3.5 7.28M12 12v9.5m9-5.44V7.94c0-.34 0-.51-.05-.67a1 1 0 0 0-.21-.36c-.11-.12-.26-.2-.56-.37l-7.4-4.1a2.36 2.36 0 0 0-.58-.28 1 1 0 0 0-.4 0c-.15.04-.3.11-.58.27l-7.4 4.11c-.3.17-.45.25-.56.37a1 1 0 0 0-.21.36C3 7.43 3 7.6 3 7.94v8.12c0 .34 0 .51.05.67a1 1 0 0 0 .21.36c.11.12.26.2.56.37l7.4 4.1c.29.17.43.24.58.28a1 1 0 0 0 .4 0c.15-.04.3-.11.58-.27l7.4-4.11c.3-.17.45-.25.56-.37a1 1 0 0 0 .21-.36c.05-.16.05-.33.05-.67Z" />
</svg>