<svg xmlns="http://www.w3.org/2000/svg" fill="none" viewBox="0 0 24 24">
  <path stroke="currentColor" stroke-linecap="round" stroke-linejoin="round" stroke-width="2"
    d="M11.3 21.61c.22.13.33.2.49.23a1 1 0 0 0 .42 0c.16-.03.27-.1.49-.23 1.95-1.13 7.3-4.7 7.3-9.61V7.22c0-.8 0-1.2-.13-1.55a2 2 0 0 0-.55-.78c-.27-.25-.65-.39-1.4-.67l-5.36-2c-.2-.09-.31-.13-.42-.14a1 1 0 0 0-.28 0c-.11.01-.21.05-.42.13L6.08 4.22c-.75.28-1.13.42-1.4.67a2 2 0 0 0-.55.78C4 6.02 4 6.42 4 7.22V12c0 4.9 5.35 8.48 7.3 9.61Z" />
</svg>