<svg xmlns="http://www.w3.org/2000/svg" fill="none" viewBox="0 0 24 24">
  <path stroke="currentColor" stroke-linecap="round" stroke-linejoin="round" stroke-width="2"
    d="m17.5 11-.78-1.57c-.27-.53-.4-.8-.58-1.03a3 3 0 0 0-.54-.54c-.23-.18-.5-.31-1.03-.58L13 6.5l1.57-.78c.53-.27.8-.4 1.03-.58a3 3 0 0 0 .54-.54c.18-.23.31-.5.58-1.03L17.5 2l.78 1.57c.27.53.4.8.58 1.03a3 3 0 0 0 .54.54c.23.18.5.31 1.03.58L22 6.5l-1.57.78c-.53.27-.8.4-1.03.58a3 3 0 0 0-.54.54c-.18.23-.31.5-.58 1.03L17.5 11ZM9 22l-1.18-3.06a6.25 6.25 0 0 0-.64-1.41 3 3 0 0 0-.7-.7 6.08 6.08 0 0 0-1.42-.65L2 15l3.06-1.18c.74-.28 1.1-.42 1.41-.64a3 3 0 0 0 .7-.7c.23-.32.37-.68.65-1.42L9 8l1.18 3.06c.28.74.42 1.1.64 1.41a3 3 0 0 0 .7.7c.32.23.68.37 1.42.65L16 15l-3.06 1.18c-.74.28-1.1.42-1.41.64a3 3 0 0 0-.7.7c-.23.32-.37.68-.65 1.42L9 22Z" />
</svg>