<svg xmlns="http://www.w3.org/2000/svg" width="512" height="512" fill="none">
  <path fill="#CC3488" d="M349.56 396.04H157.22v18.69h192.34v-18.69Zm-20.09 33.98H177.34v18.69h152.13v-18.69ZM311.18 464H195.62v18.68h115.56V464Z"/>
  <path fill="#CC3488" d="M253.4 495.8a22.6 22.6 0 0 0 20.57-13.3h-41.14a22.59 22.59 0 0 0 20.57 13.3ZM396.74 93.48l-20.49 20.44a142.58 142.58 0 0 1 20.67 74.12c0 25.72-6.79 49.85-18.66 70.74l22.23 22.18a172.62 172.62 0 0 0 25.7-90.81c0-35.75-10.86-69-29.45-96.67Zm-71.65 218.79a143.68 143.68 0 0 1-72.1 19.34 144.42 144.42 0 0 1-48.7-8.46v34.61a174.72 174.72 0 0 0 47.28 6.54c52 0 98.7-22.8 130.73-58.86l-21.92-21.87a145.62 145.62 0 0 1-35.3 28.71Z"/>
  <path fill="#CC3488" d="M253 301.46c20.8 0 40.27-5.53 56.98-15.23a114.12 114.12 0 0 0 41.8-41.94 112.97 112.97 0 0 0 14.93-56.25C366.71 125.4 315.8 74.6 253 74.6a113.42 113.42 0 0 0-80.4 33.22 112.84 112.84 0 0 0-33.31 80.2c0 2.42 0 4.08.05 5.03.05 1 .16 2.67.36 4.93l.05 1.22v124.53c10.5 8.74 22 16.26 34.34 22.38v-72.38l22.6 12.88a112.48 112.48 0 0 0 56.32 14.84H253ZM174.83 189.2a77.6 77.6 0 0 1 22.88-55.12 78 78 0 0 1 55.26-22.84 77.97 77.97 0 0 1 55.26 22.84 77.5 77.5 0 0 1 22.9 55.12c0 21.54-8.74 41-22.9 55.12a78.01 78.01 0 0 1-55.26 22.84c-21.6 0-41.1-8.74-55.26-22.84a77.7 77.7 0 0 1-22.88-55.12Z"/>
  <path fill="#CC3488" d="M109.08 188.04c0-39.63 16.12-75.53 42.16-101.5A143.65 143.65 0 0 1 253 44.49a143.5 143.5 0 0 1 70 18.18 144.65 144.65 0 0 1 34.75 27.07l19.93-19.87A174.28 174.28 0 0 0 251.59 16C155.31 16 77 94.13 77 190.15a173 173 0 0 0 32.54 101.06v-91.47c-.1-1.4-.18-3.21-.29-5.49-.13-2.77-.17-4.85-.17-6.2Z"/>
</svg>
